<svg width="24" height="26" viewBox="0 0 24 26" fill="none" xmlns="http://www.w3.org/2000/svg">
<path d="M4.51827 23.3376C4.58387 23.7332 4.7476 24.1061 4.99449 24.4221C5.24138 24.7382 5.56355 24.9872 5.93155 25.1466C6.29955 25.306 6.70163 25.3706 7.10103 25.3344C7.50043 25.2983 7.8844 25.1627 8.21783 24.9398L11.4972 22.7528C11.6976 22.6237 11.9316 22.5564 12.17 22.5594C16.564 22.5301 20.1903 21.3522 21.871 19.409C24.7108 16.1237 24.7108 7.41309 21.871 4.12785C20.1598 2.14939 16.4725 0.966797 12.0094 0.966797H12.0082C7.54449 0.966797 3.85724 2.14822 2.14547 4.1278C-0.694419 7.41304 -0.694419 16.1237 2.14604 19.4101C2.71164 20.0285 3.37901 20.5454 4.11919 20.9384L4.51827 23.3376ZM12.0082 5.46745C12.3049 5.46745 12.595 5.55543 12.8417 5.72028C13.0884 5.88513 13.2807 6.11943 13.3942 6.39356C13.5078 6.66769 13.5375 6.96933 13.4796 7.26034C13.4217 7.55136 13.2788 7.81867 13.069 8.02848C12.8592 8.23829 12.5919 8.38117 12.3009 8.43906C12.0099 8.49694 11.7082 8.46723 11.4341 8.35369C11.16 8.24014 10.9257 8.04785 10.7608 7.80114C10.596 7.55443 10.508 7.26438 10.508 6.96767C10.508 6.77065 10.5468 6.57556 10.6222 6.39354C10.6976 6.21152 10.8081 6.04613 10.9474 5.90682C11.0867 5.76751 11.2521 5.65701 11.4341 5.58162C11.6161 5.50623 11.8112 5.46743 12.0082 5.46745ZM9.60787 11.1683C9.60783 11.0107 9.63885 10.8546 9.69915 10.7089C9.75945 10.5633 9.84785 10.431 9.9593 10.3195C10.0708 10.2081 10.2031 10.1197 10.3487 10.0594C10.4943 9.99907 10.6504 9.96806 10.808 9.9681H12.0082C12.1658 9.96806 12.3219 9.99907 12.4676 10.0594C12.6132 10.1197 12.7455 10.2081 12.857 10.3195C12.9684 10.431 13.0568 10.5633 13.1171 10.7089C13.1774 10.8546 13.2084 11.0107 13.2084 11.1683V15.969C13.5267 15.969 13.832 16.0954 14.057 16.3205C14.2821 16.5456 14.4086 16.8508 14.4086 17.1691C14.4086 17.4874 14.2821 17.7927 14.057 18.0178C13.832 18.2429 13.5267 18.3693 13.2084 18.3693H10.808C10.4897 18.3693 10.1845 18.2429 9.9594 18.0178C9.73432 17.7927 9.60787 17.4874 9.60787 17.1691C9.60787 16.8508 9.73432 16.5456 9.9594 16.3205C10.1845 16.0954 10.4897 15.969 10.808 15.969V12.3684C10.6504 12.3685 10.4943 12.3375 10.3487 12.2772C10.2031 12.2169 10.0708 12.1285 9.9593 12.017C9.84785 11.9056 9.75945 11.7732 9.69915 11.6276C9.63885 11.482 9.60783 11.3259 9.60787 11.1683Z" fill="url(#paint0_linear_1051_631)"/>
<defs>
<linearGradient id="paint0_linear_1051_631" x1="11.967" y1="25.3442" x2="11.967" y2="0.966797" gradientUnits="userSpaceOnUse">
<stop stop-color="#7A11A1"/>
<stop offset="1" stop-color="#C62BC9"/>
</linearGradient>
</defs>
</svg>
