<svg width="20" height="25" viewBox="0 0 20 25" fill="none" xmlns="http://www.w3.org/2000/svg">
<path d="M18.2645 20.5126H18.2757C18.4046 20.5126 18.5322 20.4872 18.6513 20.4379C18.7703 20.3886 18.8785 20.3164 18.9696 20.2252C19.0607 20.1341 19.133 20.0259 19.1823 19.9069C19.2316 19.7878 19.257 19.6602 19.257 19.5313V0.981228C19.257 0.852361 19.2316 0.72475 19.1824 0.605686C19.1331 0.486622 19.0608 0.378438 18.9697 0.287315C18.8785 0.196193 18.7703 0.123917 18.6513 0.0746187C18.5322 0.02532 18.4046 -3.57542e-05 18.2757 3.78398e-08H3.93314C3.08716 0.00101196 2.27612 0.337526 1.67791 0.935727C1.07971 1.53393 0.743199 2.34497 0.742188 3.19095V21.7411C0.743114 22.5871 1.0796 23.3982 1.67782 23.9964C2.27604 24.5946 3.08713 24.9311 3.93314 24.932H18.2757C18.536 24.932 18.7856 24.8286 18.9696 24.6446C19.1536 24.4606 19.257 24.211 19.257 23.9508C19.257 23.6906 19.1536 23.441 18.9696 23.257C18.7856 23.0729 18.536 22.9696 18.2757 22.9696C17.9509 22.9696 17.6392 22.8409 17.409 22.6118C17.1788 22.3826 17.0487 22.0715 17.0472 21.7467C17.0457 21.4218 17.1729 21.1096 17.401 20.8783C17.6292 20.6471 17.9396 20.5155 18.2645 20.5126ZM15.3311 22.9696H3.93314C3.60742 22.9692 3.29513 22.8397 3.06481 22.6094C2.8345 22.3791 2.70496 22.0668 2.70464 21.7411V21.7391C2.70554 21.4137 2.83532 21.102 3.06557 20.8721C3.29582 20.6422 3.60778 20.5129 3.93314 20.5126H15.3311C15.1685 20.9017 15.0848 21.3193 15.0848 21.7411C15.0848 22.1628 15.1685 22.5804 15.3311 22.9696ZM17.2945 12.8472H4.6671V1.96246H17.2945V12.8472Z" fill="url(#paint0_linear_1051_610)"/>
<path d="M6.17733 11.1405H15.7845C15.854 11.1405 15.9228 11.1269 15.987 11.1003C16.0511 11.0737 16.1094 11.0348 16.1586 10.9856C16.2077 10.9365 16.2466 10.8782 16.2732 10.8141C16.2998 10.7499 16.3135 10.6811 16.3134 10.6116V4.19808C16.3135 4.12863 16.2998 4.05985 16.2732 3.99567C16.2466 3.9315 16.2077 3.87319 16.1586 3.82407C16.1094 3.77496 16.0511 3.736 15.987 3.70943C15.9228 3.68285 15.854 3.66918 15.7845 3.66919H6.17733C6.10787 3.66918 6.03909 3.68285 5.97492 3.70943C5.91075 3.736 5.85244 3.77496 5.80332 3.82407C5.75421 3.87319 5.71525 3.9315 5.68867 3.99567C5.6621 4.05985 5.64843 4.12863 5.64844 4.19808V10.6116C5.64843 10.6811 5.6621 10.7499 5.68868 10.8141C5.71525 10.8782 5.75421 10.9365 5.80332 10.9856C5.85244 11.0348 5.91075 11.0737 5.97492 11.1003C6.03909 11.1269 6.10787 11.1405 6.17733 11.1405ZM6.70623 4.72697H15.2557V8.59719L13.3982 7.51614C13.3337 7.47852 13.2603 7.4587 13.1856 7.4587C13.1109 7.4587 13.0375 7.47852 12.973 7.51614L10.8807 8.73344C10.8764 8.72921 10.8722 8.72455 10.8675 8.72032L8.6627 6.76342C8.58524 6.69473 8.48529 6.65679 8.38176 6.65679C8.27822 6.65679 8.17828 6.69473 8.10082 6.76342L6.70623 8.00144V4.72697Z" fill="url(#paint1_linear_1051_610)"/>
<path d="M11.1008 7.39447C11.5804 7.39447 11.9692 7.00568 11.9692 6.52609C11.9692 6.0465 11.5804 5.65771 11.1008 5.65771C10.6212 5.65771 10.2324 6.0465 10.2324 6.52609C10.2324 7.00568 10.6212 7.39447 11.1008 7.39447Z" fill="url(#paint2_linear_1051_610)"/>
<defs>
<linearGradient id="paint0_linear_1051_610" x1="9.96777" y1="24.932" x2="9.96776" y2="-3.24839e-07" gradientUnits="userSpaceOnUse">
<stop stop-color="#7A11A1"/>
<stop offset="1" stop-color="#C62BC9"/>
</linearGradient>
<linearGradient id="paint1_linear_1051_610" x1="10.9626" y1="11.1405" x2="10.9626" y2="3.66919" gradientUnits="userSpaceOnUse">
<stop stop-color="#7A11A1"/>
<stop offset="1" stop-color="#C62BC9"/>
</linearGradient>
<linearGradient id="paint2_linear_1051_610" x1="11.0978" y1="7.39447" x2="11.0978" y2="5.65771" gradientUnits="userSpaceOnUse">
<stop stop-color="#7A11A1"/>
<stop offset="1" stop-color="#C62BC9"/>
</linearGradient>
</defs>
</svg>
