<svg width="22" height="21" viewBox="0 0 22 21" fill="none" xmlns="http://www.w3.org/2000/svg">
<path fill-rule="evenodd" clip-rule="evenodd" d="M7.925 3.42469H21.0237L13.2437 8.92339L7.95187 5.18289C8.15341 4.62683 8.15509 3.99806 7.925 3.42469ZM4.49934 6.61606L6.40867 5.41763C6.97538 5.06193 7.16324 4.30304 6.83166 3.71088L5.10804 0.632792C4.93121 0.316919 4.66345 0.113841 4.31844 0.0334504C3.97343 -0.04694 3.64713 0.0178671 3.35586 0.224656L0.212352 2.45604C-1.28406 7.89142 5.44009 19.6591 10.5971 21L14.0431 19.3091C14.3624 19.1523 14.5801 18.8935 14.6851 18.5452C14.7902 18.197 14.7533 17.8566 14.5765 17.5407L12.8528 14.4627C12.5213 13.8702 11.7897 13.6588 11.2077 13.987L9.24627 15.0924C7.30647 13.3139 5.02358 9.23703 4.49934 6.61606ZM21.9753 4.13187L13.5549 10.083C13.3579 10.2215 13.1048 10.2109 12.9217 10.0751L7.33167 6.12432C7.22586 6.22277 7.10973 6.31231 6.98377 6.39146L5.77623 7.14936C6.41059 9.26029 7.98043 12.0636 9.43653 13.6855L10.6772 12.9862C11.7856 12.3616 13.1791 12.7646 13.8109 13.8923L14.8797 15.8011H21.106C21.5976 15.8011 22 15.3865 22 14.8794V4.34608C21.9998 4.27237 21.9911 4.20064 21.9753 4.13187Z" fill="url(#paint0_linear_1051_630)"/>
<defs>
<linearGradient id="paint0_linear_1051_630" x1="10.9622" y1="21" x2="10.9622" y2="-2.73608e-07" gradientUnits="userSpaceOnUse">
<stop stop-color="#7A11A1"/>
<stop offset="1" stop-color="#C62BC9"/>
</linearGradient>
</defs>
</svg>
