<svg width="57" height="59" viewBox="0 0 57 59" fill="none" xmlns="http://www.w3.org/2000/svg">
<g filter="url(#filter0_d_1051_620)">
<path d="M26.0419 25.4514C25.1586 25.4514 24.2752 25.1136 23.5714 24.4414C22.2623 23.1886 21.0481 20.9609 21.291 18.8107C21.3543 18.2476 21.4986 17.5051 22.0617 16.752C23.0154 15.4745 24.4582 14.7355 26.0172 14.7319C27.6079 14.7319 29.0473 15.4604 30.0221 16.7484C30.5887 17.5086 30.733 18.2511 30.7963 18.8107V18.8283C31.0039 21.0067 29.8004 23.2202 28.5159 24.4449C27.812 25.1171 26.9287 25.4514 26.0454 25.4514H26.0419Z" fill="url(#paint0_linear_1051_620)"/>
<path d="M29.1267 27.5211C29.1267 27.3768 29.1373 27.236 29.1478 27.0952C28.8804 27.0565 28.6059 27.0354 28.3314 27.0354H23.7459C22.6373 27.0354 21.564 27.3556 20.6419 27.961C19.1146 28.9639 18.2031 30.7376 18.2031 32.7048V33.3911C18.2031 35.1859 19.6636 36.6463 21.4619 36.6463H30.6224C32.4172 36.6463 33.8812 35.1859 33.8812 33.3911V33.0075C31.1995 32.6169 29.1302 30.3083 29.1302 27.5175L29.1267 27.5211Z" fill="url(#paint1_linear_1051_620)"/>
<path d="M34.677 23.1987C32.2945 23.1987 30.3555 25.1378 30.3555 27.5203C30.3555 29.9028 32.2945 31.8419 34.677 31.8419C37.0595 31.8419 38.9986 29.9028 38.9986 27.5203C38.9986 25.1378 37.0595 23.1987 34.677 23.1987ZM36.6337 27.9356C37.0595 28.3614 37.0595 29.0512 36.6337 29.4735C36.2079 29.8993 35.5181 29.8993 35.0958 29.4735L34.6806 29.0582L34.2653 29.4735C33.8395 29.8993 33.1497 29.8993 32.7274 29.4735C32.3016 29.0476 32.3016 28.3579 32.7274 27.9356L33.1427 27.5203L32.7274 27.105C32.3016 26.6792 32.3016 25.9895 32.7274 25.5672C33.1532 25.1413 33.843 25.1413 34.2653 25.5672L34.6806 25.9824L35.0958 25.5672C35.5217 25.1413 36.2114 25.1413 36.6337 25.5672C37.0595 25.993 37.0595 26.6827 36.6337 27.105L36.2185 27.5203L36.6337 27.9356Z" fill="url(#paint2_linear_1051_620)"/>
</g>
<defs>
<filter id="filter0_d_1051_620" x="0.203125" y="0.731934" width="56.7949" height="57.9143" filterUnits="userSpaceOnUse" color-interpolation-filters="sRGB">
<feFlood flood-opacity="0" result="BackgroundImageFix"/>
<feColorMatrix in="SourceAlpha" type="matrix" values="0 0 0 0 0 0 0 0 0 0 0 0 0 0 0 0 0 0 127 0" result="hardAlpha"/>
<feOffset dy="4"/>
<feGaussianBlur stdDeviation="9"/>
<feComposite in2="hardAlpha" operator="out"/>
<feColorMatrix type="matrix" values="0 0 0 0 0.611765 0 0 0 0 0.109804 0 0 0 0 0.701961 0 0 0 0.2 0"/>
<feBlend mode="normal" in2="BackgroundImageFix" result="effect1_dropShadow_1051_620"/>
<feBlend mode="normal" in="SourceGraphic" in2="effect1_dropShadow_1051_620" result="shape"/>
</filter>
<linearGradient id="paint0_linear_1051_620" x1="26.0233" y1="25.4514" x2="26.0233" y2="14.7319" gradientUnits="userSpaceOnUse">
<stop stop-color="#7A11A1"/>
<stop offset="1" stop-color="#C62BC9"/>
</linearGradient>
<linearGradient id="paint1_linear_1051_620" x1="26.0152" y1="36.6463" x2="26.0152" y2="27.0354" gradientUnits="userSpaceOnUse">
<stop stop-color="#7A11A1"/>
<stop offset="1" stop-color="#C62BC9"/>
</linearGradient>
<linearGradient id="paint2_linear_1051_620" x1="34.6622" y1="31.8419" x2="34.6622" y2="23.1987" gradientUnits="userSpaceOnUse">
<stop stop-color="#7A11A1"/>
<stop offset="1" stop-color="#C62BC9"/>
</linearGradient>
</defs>
</svg>
