<svg width="25" height="26" viewBox="0 0 25 26" fill="none" xmlns="http://www.w3.org/2000/svg">
<path d="M21.3976 13.6147C21.3286 13.5864 19.6849 12.9214 17.7217 12.7985C15.8792 12.6829 14.3609 13.0822 13.2324 13.9637V25.9999C14.0541 24.6367 15.5223 24.0076 17.6013 24.1302C19.3378 24.2327 20.8471 24.8397 20.8615 24.8456C20.9725 24.891 21.0926 24.9076 21.2112 24.8937C21.3298 24.8799 21.4433 24.8361 21.5419 24.7662C21.6406 24.6962 21.7213 24.6023 21.7771 24.4925C21.8329 24.3827 21.862 24.2603 21.862 24.1361V14.3241C21.862 14.171 21.8177 14.0214 21.7349 13.8949C21.652 13.7684 21.5345 13.6707 21.3976 13.6147ZM19.4534 20.1941C19.4169 20.6134 19.0604 20.9225 18.6579 20.8846C17.8695 20.8102 17.1493 20.8408 16.5174 20.9755C15.9581 21.0944 15.6943 20.592 15.6529 20.3815C15.5718 19.969 15.8273 19.5662 16.2236 19.4817C16.9956 19.3172 17.8591 19.2783 18.7901 19.3661C19.1929 19.4041 19.4899 19.7748 19.4534 20.1941ZM19.4534 16.9234C19.4169 17.3427 19.0604 17.6518 18.6579 17.6139C17.8703 17.5396 17.1501 17.5704 16.5173 17.7052C15.958 17.8242 15.6943 17.3217 15.6529 17.1112C15.5717 16.6988 15.8272 16.2959 16.2235 16.2115C16.9965 16.0468 17.86 16.0078 18.79 16.0954C19.1929 16.1334 19.4899 16.5041 19.4534 16.9234ZM7.27827 12.7985C5.31514 12.9214 3.67139 13.5864 3.60239 13.6147C3.46549 13.6707 3.34797 13.7684 3.26514 13.8949C3.18232 14.0214 3.13803 14.171 3.13804 14.3241V24.1362C3.13804 24.2604 3.1672 24.3827 3.22298 24.4925C3.27876 24.6023 3.35948 24.6963 3.4581 24.7662C3.55673 24.8362 3.67028 24.88 3.78888 24.8938C3.90747 24.9076 4.02752 24.8911 4.13857 24.8456C4.15332 24.8396 5.63262 24.2409 7.36631 24.1322C9.46211 24.0009 10.9416 24.6294 11.7676 26V13.9638C10.6391 13.0823 9.12061 12.6831 7.27827 12.7985ZM9.34712 20.3815C9.30571 20.592 9.04194 21.0944 8.48267 20.9755C7.85078 20.8408 7.13062 20.8102 6.34214 20.8846C5.9396 20.9225 5.58311 20.6135 5.54663 20.1941C5.51016 19.7748 5.80713 19.4041 6.21001 19.3661C7.14097 19.2783 8.00449 19.3172 8.77651 19.4817C9.17275 19.5662 9.42827 19.969 9.34712 20.3815ZM9.34712 17.1112C9.30571 17.3217 9.04199 17.8242 8.48267 17.7051C7.8499 17.5703 7.12969 17.5396 6.34209 17.6138C5.37227 17.6675 5.24702 16.2235 6.20996 16.0953C7.14004 16.0077 8.00352 16.0468 8.77646 16.2114C9.17275 16.2959 9.42827 16.6988 9.34712 17.1112ZM12.5 6.45704C14.216 6.45704 15.612 5.00397 15.612 3.21796C15.4555 -1.07325 9.5438 -1.07208 9.38799 3.21801C9.38804 5.00397 10.784 6.45704 12.5 6.45704ZM4.65493 8.49756C6.3709 8.49756 7.76689 7.04449 7.76689 5.25849C7.61045 0.967281 1.69878 0.96845 1.54297 5.25854C1.54297 7.04454 2.93896 8.49756 4.65493 8.49756ZM20.3451 8.49756C22.061 8.49756 23.457 7.04449 23.457 5.25849C23.3006 0.967281 17.3889 0.96845 17.2331 5.25854C17.2331 7.04454 18.6291 8.49756 20.3451 8.49756ZM17.1549 10.0119C17.1549 8.7869 16.501 7.68598 15.4485 7.13882L15.2408 7.03077C13.7181 8.28574 11.2825 8.28579 9.75972 7.03123L9.55039 7.14019C8.49849 7.68816 7.84502 8.78898 7.84502 10.0131V11.2547C9.14224 11.2501 10.9334 11.4831 12.5 12.6338C14.0665 11.4829 15.8572 11.25 17.1549 11.2546V10.0119Z" fill="url(#paint0_linear_1051_608)"/>
<path d="M23.2936 9.17941L23.0859 9.07136C21.8909 10.049 20.0313 10.3106 18.6078 9.66547C18.6157 9.78008 18.6198 9.89565 18.6198 10.012V11.3546C20.3948 11.5826 21.7636 12.1263 21.9336 12.1958C22.78 12.5423 23.3268 13.3777 23.3268 14.3242V16.2015H24.2676C24.6721 16.2015 25 15.8601 25 15.4391V12.0525C25 10.8275 24.346 9.72656 23.2936 9.17941ZM6.38018 10.0132C6.38018 9.89641 6.38433 9.78043 6.39233 9.66542C4.9688 10.3105 3.10981 10.0491 1.91465 9.07181L1.70532 9.18078C0.653467 9.7287 0 10.8296 0 12.0537V15.4391C0 15.8601 0.32793 16.2015 0.732422 16.2015H1.67319V14.3242C1.67319 13.3777 2.22002 12.5423 3.06631 12.1959C3.23643 12.1263 4.60518 11.5826 6.38018 11.3546V10.0132Z" fill="url(#paint1_linear_1051_608)"/>
<defs>
<linearGradient id="paint0_linear_1051_608" x1="12.457" y1="26" x2="12.457" y2="-3.38753e-07" gradientUnits="userSpaceOnUse">
<stop stop-color="#7A11A1"/>
<stop offset="1" stop-color="#C62BC9"/>
</linearGradient>
<linearGradient id="paint1_linear_1051_608" x1="12.457" y1="26" x2="12.457" y2="-3.38753e-07" gradientUnits="userSpaceOnUse">
<stop stop-color="#7A11A1"/>
<stop offset="1" stop-color="#C62BC9"/>
</linearGradient>
</defs>
</svg>
