<svg width="22" height="22" viewBox="0 0 22 22" fill="none" xmlns="http://www.w3.org/2000/svg">
<path d="M15.4166 21.9999C15.7058 22.0014 15.9948 21.9827 16.2813 21.9435C18.4306 21.6612 20.2648 20.3305 21.5899 18.0479C22.1367 17.0702 22.1367 15.8801 21.5899 14.9025C20.8132 13.4446 19.5743 12.2844 18.0669 11.6039C17.1515 11.1877 16.0942 11.2204 15.2065 11.6926C14.1173 12.2541 13.2595 13.1787 12.7823 14.3057C11.7582 13.6523 10.8167 12.8778 9.97851 11.9991C9.09697 11.1636 8.32106 10.2236 7.66759 9.2005C8.79516 8.72192 9.72095 7.86633 10.2855 6.78101C10.7587 5.8948 10.7916 4.83955 10.3744 3.92576C9.69012 2.4229 8.5286 1.18701 7.06969 0.409307C6.09042 -0.136436 4.8977 -0.136436 3.91844 0.409307C1.68012 1.77237 0.338852 3.60331 0.0560275 5.74873C-0.355989 8.88608 1.51053 12.6282 5.45349 16.5563C9.03308 20.1373 12.4593 21.9999 15.4166 21.9999Z" fill="url(#paint0_linear_1051_609)"/>
<defs>
<linearGradient id="paint0_linear_1051_609" x1="10.9622" y1="22" x2="10.9622" y2="-2.86637e-07" gradientUnits="userSpaceOnUse">
<stop stop-color="#7A11A1"/>
<stop offset="1" stop-color="#C62BC9"/>
</linearGradient>
</defs>
</svg>
