<svg width="18" height="25" viewBox="0 0 18 25" fill="none" xmlns="http://www.w3.org/2000/svg">
<path d="M13.364 0.425425V4.87988H17.5742L13.364 0.425425ZM11.7792 13.7888L9.43758 16.9419C9.29566 17.1421 9.08279 17.2673 8.84626 17.2923C8.8226 17.2923 8.79895 17.2923 8.75164 17.2923C8.53876 17.2923 8.34954 17.2172 8.20762 17.0671L6.71748 15.7157C6.36268 15.3904 6.31537 14.8148 6.62286 14.4394C6.93036 14.0641 7.47438 14.014 7.82917 14.3393L8.65703 15.0901L10.4547 12.6627C10.7385 12.2623 11.2825 12.2122 11.661 12.5125C12.0158 12.8128 12.0867 13.3884 11.7792 13.7888ZM12.6781 6.35636C12.2996 6.35636 11.9921 6.03103 11.9921 5.63063V0H2.53088C1.13535 0 0 1.2012 0 2.67768V22.3223C0 23.7988 1.13535 25 2.53088 25H15.4691C16.8647 25 18 23.7988 18 22.3223V6.35636H12.6781ZM14.0972 14.6396C14.0972 19.0691 9.41393 21.2212 9.2247 21.3213C9.15375 21.3463 9.05913 21.3714 8.96452 21.3714C8.86991 21.3714 8.79895 21.3463 8.70434 21.3213C8.51511 21.2212 3.8318 19.0691 3.8318 14.6396V10.986C3.8318 10.6857 3.99737 10.4354 4.25756 10.3353L8.75164 8.70871C8.89356 8.65866 9.03548 8.65866 9.15375 8.70871L13.6478 10.3353C13.908 10.4354 14.0736 10.6857 14.0736 10.986V14.6396H14.0972Z" fill="url(#paint0_linear_1051_626)"/>
<defs>
<linearGradient id="paint0_linear_1051_626" x1="8.96907" y1="25" x2="8.96907" y2="-3.25724e-07" gradientUnits="userSpaceOnUse">
<stop stop-color="#7A11A1"/>
<stop offset="1" stop-color="#C62BC9"/>
</linearGradient>
</defs>
</svg>
