<svg width="22" height="22" viewBox="0 0 22 22" fill="none" xmlns="http://www.w3.org/2000/svg">
<path d="M15.4166 21.9994C15.7058 22.0009 15.9948 21.9821 16.2813 21.9429C18.4306 21.6606 20.2648 20.3299 21.5899 18.0474V18.0476C22.1367 17.07 22.1367 15.8797 21.5899 14.9021C20.8132 13.4442 19.5743 12.2841 18.0669 11.6036C17.1515 11.1874 16.0942 11.2201 15.2065 11.6924C14.1173 12.2538 13.2595 13.1784 12.7823 14.3053C11.7582 13.6519 10.8167 12.8775 9.97851 11.9988C9.09697 11.1633 8.32106 10.2234 7.66759 9.20026C8.79516 8.7217 9.72095 7.86613 10.2855 6.78084C10.7587 5.89465 10.7916 4.83942 10.3744 3.92566C9.69012 2.42284 8.5286 1.18698 7.06969 0.409297C6.09042 -0.136432 4.8977 -0.136432 3.91844 0.409297C1.68012 1.77232 0.338852 3.60322 0.0560275 5.74858C-0.355989 8.88585 1.51053 12.6279 5.45349 16.5559C9.03308 20.1368 12.4591 22 15.4164 22L15.4166 21.9994ZM1.6801 5.94968C1.87403 4.29648 2.92438 2.94952 4.76679 1.84474C5.01227 1.70396 5.29187 1.63434 5.57474 1.64313C5.85702 1.64046 6.13509 1.70989 6.38289 1.84474C7.53808 2.45109 8.45484 3.4285 8.98473 4.61897C9.20664 5.06062 9.20664 5.58091 8.98473 6.02235C8.41903 6.92553 7.46562 7.78856 6.64138 7.78856C6.41678 7.77632 6.19697 7.85818 6.0354 8.01446C5.87615 8.16595 5.7857 8.37558 5.78493 8.59515C5.78493 8.94193 6.01126 10.2969 8.87967 13.1599C11.7481 16.0229 13.1057 16.2245 13.4288 16.2245C13.6518 16.2249 13.8651 16.1335 14.0181 15.9715C14.171 15.8097 14.2503 15.5918 14.2369 15.3697C14.1884 14.5633 15.0448 13.5955 15.9823 13.1035H15.9821C16.4246 12.8818 16.9459 12.8818 17.3882 13.1035C18.5811 13.6324 19.5603 14.5472 20.1678 15.7004C20.4411 16.1892 20.4411 16.7844 20.1678 17.2731C19.0931 19.1201 17.7438 20.1604 16.0549 20.378C13.4288 20.6927 10.1968 18.9829 6.59293 15.4183C2.98921 11.8535 1.30831 8.59529 1.65564 5.95014L1.6801 5.94968Z" fill="#A720B9"/>
</svg>
