<svg width="22" height="22" viewBox="0 0 22 22" fill="none" xmlns="http://www.w3.org/2000/svg">
<path fill-rule="evenodd" clip-rule="evenodd" d="M3.8412 19.1581H2.30453C1.69312 19.1581 1.10763 18.9152 0.676673 18.4833C0.243798 18.0514 0 17.4659 0 16.8545V4.56877C0 3.95832 0.243795 3.37187 0.676673 2.93995C1.10763 2.50804 1.69312 2.2652 2.30453 2.2652H3.8412V2.30359V19.1581ZM17.6616 2.2652H19.1974C19.8088 2.2652 20.3943 2.50803 20.8262 2.93995C21.2581 3.37187 21.5 3.95832 21.5 4.56877V16.8545C21.5 17.4659 21.2581 18.0514 20.8262 18.4833C20.3943 18.9152 19.8088 19.1581 19.1974 19.1581H17.6616V2.30353V2.2652Z" fill="url(#paint0_linear_1054_1568)"/>
<path fill-rule="evenodd" clip-rule="evenodd" d="M16.8931 19.1964C16.8931 20.4692 15.8623 21.5 14.5896 21.5H6.91099C5.63827 21.5 4.60742 20.4692 4.60742 19.1964V2.30357C4.60742 1.03085 5.63827 0 6.91099 0H14.5896C15.8623 0 16.8931 1.03085 16.8931 2.30357V19.1964ZM8.44671 4.60714H13.0539C13.4781 4.60714 13.8217 4.26354 13.8217 3.83929C13.8217 3.41504 13.4781 3.07143 13.0539 3.07143H8.44671C8.02246 3.07143 7.67885 3.41504 7.67885 3.83929C7.67885 4.26354 8.02246 4.60714 8.44671 4.60714ZM8.44671 11.5179H13.0539C13.4781 11.5179 13.8217 11.1743 13.8217 10.75C13.8217 10.3258 13.4781 9.98214 13.0539 9.98214H8.44671C8.02246 9.98214 7.67885 10.3258 7.67885 10.75C7.67885 11.1743 8.02246 11.5179 8.44671 11.5179ZM8.44671 7.67857H13.0539C13.4781 7.67857 13.8217 7.33496 13.8217 6.91071C13.8217 6.48646 13.4781 6.14286 13.0539 6.14286H8.44671C8.02246 6.14286 7.67885 6.48646 7.67885 6.91071C7.67885 7.33496 8.02246 7.67857 8.44671 7.67857ZM8.44671 18.4286H13.0539C13.4781 18.4286 13.8217 18.085 13.8217 17.6607C13.8217 17.2365 13.4781 16.8929 13.0539 16.8929H8.44671C8.02246 16.8929 7.67885 17.2365 7.67885 17.6607C7.67885 18.085 8.02246 18.4286 8.44671 18.4286ZM8.44671 15.3571H13.0539C13.4781 15.3571 13.8217 15.0135 13.8217 14.5893C13.8217 14.165 13.4781 13.8214 13.0539 13.8214H8.44671C8.02246 13.8214 7.67885 14.165 7.67885 14.5893C7.67885 15.0135 8.02246 15.3571 8.44671 15.3571Z" fill="url(#paint1_linear_1054_1568)"/>
<defs>
<linearGradient id="paint0_linear_1054_1568" x1="10.713" y1="19.1581" x2="10.713" y2="2.26514" gradientUnits="userSpaceOnUse">
<stop stop-color="#7A11A1"/>
<stop offset="1" stop-color="#C62BC9"/>
</linearGradient>
<linearGradient id="paint1_linear_1054_1568" x1="10.7292" y1="21.5" x2="10.7292" y2="-2.80123e-07" gradientUnits="userSpaceOnUse">
<stop stop-color="#7A11A1"/>
<stop offset="1" stop-color="#C62BC9"/>
</linearGradient>
</defs>
</svg>
