<svg width="24" height="24" viewBox="0 0 24 24" fill="none" xmlns="http://www.w3.org/2000/svg">
<path d="M13.132 18.7585C13.132 17.1785 13.7653 15.6927 14.9155 14.5753C16.0658 13.4579 17.5948 12.8428 19.2218 12.8428C20.5572 12.8428 21.827 13.258 22.8756 14.0248C22.9337 13.1997 22.9698 12.2768 22.9712 11.2436C22.9684 8.64497 22.7439 6.74211 22.5043 5.34375C22.0853 3.03973 19.931 0.946986 17.5592 0.539912C16.1197 0.306778 14.1609 0.0886695 11.4854 0.0859375C8.8103 0.0886695 6.851 0.306778 5.41152 0.539457C3.0402 0.946531 0.885905 3.03928 0.466858 5.3433C0.227335 6.74165 0.00328113 8.64452 0 11.2431C0.00328113 13.8418 0.227335 15.7451 0.466858 17.1434C0.885905 19.4475 3.0402 21.5402 5.41199 21.9473C6.85147 22.18 8.8103 22.3976 11.4858 22.4008C12.5494 22.3994 13.4995 22.3644 14.3489 22.3079C13.5595 21.2893 13.132 20.0563 13.132 18.7585ZM5.81041 5.47808H17.1608C17.8948 5.47808 18.4901 6.05636 18.4901 6.76943C18.4901 7.48249 17.8948 8.06077 17.1608 8.06077H5.81041C5.07638 8.06077 4.48109 7.48249 4.48109 6.76943C4.48109 6.05636 5.07638 5.47808 5.81041 5.47808ZM5.81041 13.4534C5.07638 13.4534 4.48109 12.8751 4.48109 12.162C4.48109 11.449 5.07638 10.8707 5.81041 10.8707H12.4735C13.2075 10.8707 13.8028 11.449 13.8028 12.162C13.8028 12.8751 13.2075 13.4534 12.4735 13.4534H5.81041Z" fill="url(#paint0_linear_1051_627)"/>
<path d="M19.2226 14.1174C16.5841 14.1174 14.4453 16.1951 14.4453 18.7583C14.4453 21.3214 16.5841 23.3991 19.2226 23.3991C21.8611 23.3991 24 21.3214 24 18.7583C24 16.1951 21.8611 14.1174 19.2226 14.1174ZM20.1132 21.0609C20.1132 21.5386 19.7143 21.9261 19.2226 21.9261C18.7309 21.9261 18.332 21.5386 18.332 21.0609V18.7783C18.332 18.3006 18.7309 17.9131 19.2226 17.9131C19.7143 17.9131 20.1132 18.3006 20.1132 18.7783V21.0609ZM20.0767 16.9264C20.0439 17.1067 19.8751 17.2707 19.6895 17.3025C19.577 17.3208 19.4233 17.3376 19.2137 17.3381C19.0042 17.3381 18.8509 17.3208 18.738 17.3025C18.5523 17.2707 18.3836 17.1067 18.3508 16.9264C18.332 16.8171 18.3147 16.6678 18.3142 16.4643C18.3142 16.2607 18.332 16.1118 18.3508 16.0021C18.3836 15.8218 18.5523 15.6578 18.738 15.626C18.8505 15.6078 19.0042 15.5909 19.2137 15.5905C19.4233 15.5905 19.5765 15.6078 19.6895 15.626C19.8751 15.6578 20.0439 15.8218 20.0767 16.0021C20.0954 16.1114 20.1128 16.2607 20.1132 16.4643C20.1132 16.6678 20.0954 16.8167 20.0767 16.9264Z" fill="url(#paint1_linear_1051_627)"/>
<defs>
<linearGradient id="paint0_linear_1051_627" x1="11.4461" y1="22.4008" x2="11.4461" y2="0.0859372" gradientUnits="userSpaceOnUse">
<stop stop-color="#7A11A1"/>
<stop offset="1" stop-color="#C62BC9"/>
</linearGradient>
<linearGradient id="paint1_linear_1051_627" x1="19.2062" y1="23.3991" x2="19.2062" y2="14.1174" gradientUnits="userSpaceOnUse">
<stop stop-color="#7A11A1"/>
<stop offset="1" stop-color="#C62BC9"/>
</linearGradient>
</defs>
</svg>
